<?xml version="1.0" encoding="utf-8"?>
<!DOCTYPE svg PUBLIC "-//W3C//DTD SVG 1.1//EN" "http://www.w3.org/Graphics/SVG/1.1/DTD/svg11.dtd" [
	<!ENTITY ns_svg "http://www.w3.org/2000/svg">
	<!ENTITY ns_xlink "http://www.w3.org/1999/xlink">
]>
<svg version="1.1" xmlns="&ns_svg;" xmlns:xlink="&ns_xlink;" width="340.883" height="382.428" viewBox="0 0 340.883 382.428" overflow="visible" enable-background="new 0 0 340.883 382.428" xml:space="preserve">
	<g id="FX">
		<path fill-rule="evenodd" clip-rule="evenodd" fill="#E76F00" d="M223.375,89.527c3.379-6.007-23.944,25.097-67.347,31.187
		c2.669-22.474,9.773-40.287,21.965-52.099c17.304-16.764,32.009-10.646,39.498,7.756c3.094-20.737-0.02-36.155-26.029-34.502
		c-31.132,1.978-49.211,38.905-53.86,81.683c-36.025,8.792-49.983,36.888-50.629,56.91c9.862-23.876,30.55-33.567,47.834-37.932
		c-10.602,48.987-44.727,79.099-37.611,75.097c35.998-20.249,50.925-54.623,56.166-78.402
		C170.883,136.801,204.149,123.707,223.375,89.527z M315.844,36.708c-25.285,9.186-44.194,24.326-57.678,40.05
		c-8.091-18.486-6.256-41.274,1.416-51.012c13.112-16.643,35.533-13.746,49.528-5.869c-0.873-8.448-16.677-21.04-39.254-19.792
		C232.454,2.155,226.063,57.72,245.91,93.35c-6.529,10.34-10.793,20.101-13.038,27.671c-6.787,22.887-22.309,68.337-70.162,79.428
		c30.348,4.021,73.475-13.012,89.626-74.365c1.45-5.507,3.229-10.769,5.254-15.79c18.247,24.777,35.605,50.889-15.534,79.743
		c76.643-11.938,52.789-70.053,25.246-99.23c-0.01-0.011-0.02-0.022-0.029-0.033C289.734,52.872,323.057,34.089,315.844,36.708z" />
	</g>
	<g id="j">
		<path fill-rule="evenodd" clip-rule="evenodd" fill="#723F11" d="M125.944,285.172c60.265-1.02,111.892-18.459,119.208-38.611
		c10.881-29.965-44.781-45.341-44.781-45.341s62.295,10.501,63.055,41.208C263.979,264.805,187.368,293.467,125.944,285.172z
		 M156.842,219.223c-8.734,0-14.774-2.465-13.49-5.508c1.285-3.041,9.406-5.507,18.141-5.507s14.773,2.466,13.49,5.507
		C173.698,216.758,165.577,219.223,156.842,219.223z M132.009,194.681c9.54-0.177,18.335,0.323,25.693,1.582
		c-11.363,0-20.579,0.7-28.357,1.638C130.239,196.86,131.129,195.783,132.009,194.681z M103.12,202.045
		c-26.411,3.946-50.088,12.441-62.086,26.102c-17.18,19.561-1.917,39.719,26.486,40.186c33.49,0.551,68.591-41.369,70.647-43.254
		c2.056-1.885,23.971-3.434,25.117,0c0.932,1.102-46.538,48.42-84.655,50.57c-29.287,1.652-60.669-20.271-60.083-37.352
		c0.72-20.967,46.053-36.606,88.42-41.793C105.605,198.572,104.298,200.435,103.12,202.045z" />
	</g>
	<g id="cup">
		<path fill-rule="evenodd" clip-rule="evenodd" fill="#587993" d="M267.192,324.428c8.522-14.229,10-24,10-24
		s41.404-28.457,47.159-55.75c8.546-40.525-39.938,15.908-39.938,15.908l0.166-13.863c0,0,27.746-47.199,50.772-25.229
		C357.192,242.336,310.192,302.428,267.192,324.428z M140.192,382.428c-151.32,0-140-117.281-140-146
		c0-25.645,49.993-52.125,115.746-57.077c-1.372,3.275-2.953,6.437-4.599,9.397C52.293,194.093,8.192,215.193,8.192,240.428
		c0,29.271,59.322,53,132.5,53s132.5-23.729,132.5-53c0-19.263-25.694-36.123-64.117-45.402c4.143-2.223,7.889-4.425,10.624-6.087
		c36.538,10.55,60.493,29.741,60.493,47.489C280.192,265.146,286.512,382.428,140.192,382.428z M180.034,189.803
		c-12.43-1.544-25.643-2.376-39.342-2.376c-1.208,0-2.402,0.023-3.603,0.036c2.346-3.301,4.438-6.453,6.078-9.005
		c16.938,0.156,33.132,1.613,48.08,4.104C187.669,185.363,183.728,187.797,180.034,189.803z" />
	</g>
</svg>